<svg xmlns="http://www.w3.org/2000/svg" viewBox="0 0 512 512"><path d="M0 0h512v512H0z"/><path d="M150.082 160.303q-13.105 18.476-13.105 43.183 0 49.414 37.382 76.7 37.598 27.285 83.575 27.285 58.007 0 87.441-32.657 29.648-32.656 29.648-71.328 0-29.863-13.535-48.984l-9.023 59.082h-115.8v-31.367h82.714q-29.434-9.883-29.434-37.383 0-14.61 8.809-23.203 8.809-8.809 23.203-8.809 24.492 0 41.035 23.633 16.543 23.418 16.543 68.32 0 60.586-33.515 98.184-33.301 37.383-88.946 37.383-36.308 0-65.312-18.262t-44.043-47.266q-15.04-29.004-15.04-68.535 0-40.176 13.536-66.816t36.738-26.64q14.824 0 23.418 11.6 8.594 11.387 8.594 31.583 0 23.418-9.883 37.597-9.668 14.18-24.922 14.18-13.75 0-20.41-11.172-6.66-11.387-9.668-36.308m206.68-.43q0-12.031-7.735-21.27-7.52-9.238-18.047-9.238-10.312 0-15.898 6.875-5.371 6.875-5.371 15.469 0 13.105 7.52 21.7 7.519 8.593 17.617 8.808 9.668 0 15.683-6.66 6.23-6.66 6.23-15.684m-146.309.43q0-22.13-27.07-22.13-10.957 0-19.551 6.231-8.379 6.23-8.379 18.477 0 22.129 27.5 22.129 13.965 0 20.625-7.95 6.875-7.949 6.875-16.757"/></svg>