<svg xmlns="http://www.w3.org/2000/svg" viewBox="0 0 512 512"><path d="M0 0h512v512H0z"/><path d="M356.547 210.79q16.328 20.411 16.328 44.474 0 40.82-33.086 62.949t-75.625 22.129q-61.445 0-96.68-36.953-35.02-37.168-35.02-99.473 0-38.027 13.966-64.453 13.965-26.64 38.672-26.64 14.609 0 23.203 11.386 8.808 11.172 8.808 30.723 0 23.847-9.883 38.457-9.882 14.394-25.351 14.394-27.07 0-30.078-48.984-15.04 11.172-15.04 40.82.216 33.086 16.329 57.793 16.328 24.492 44.472 37.383 28.145 12.676 67.891 12.676 46.836 0 73.262-15.254 26.64-15.47 26.426-43.184 0-19.121-12.032-35.45H241.391v-31.366h86.582q-13.106-15.684-13.106-33.516 0-35.879 33.516-35.879 13.32 0 25.996 11.172t12.676 35.879q0 30.723-30.508 50.918m25.996-49.413q.215-13.535-9.453-21.055-9.668-7.734-23.418-7.52-12.246 0-20.41 8.165t-8.164 16.543q.215 11.816 9.238 20.195 9.238 8.164 25.137 8.379 11.816-.215 19.336-6.66 7.734-6.66 7.734-18.047m-169.727-1.934q0-11.172-7.949-17.187t-19.12-6.016q-15.04 0-22.345 8.379-7.304 8.164-7.304 17.187 0 23.204 27.07 23.204 13.535 0 21.484-7.09 8.164-7.305 8.164-18.477"/></svg>