<svg xmlns="http://www.w3.org/2000/svg" viewBox="0 0 512 512"><path d="M0 0h512v512H0z"/><path d="M379.105 307.47q0 32.872-27.07 32.872-9.238 0-17.832-7.52-8.379-7.52-8.379-22.988 0-11.172 9.668-29.863 7.305-13.965 8.809-23.204-20.41 16.329-37.813 16.329-16.113 0-28.574-7.52-12.46-7.734-12.46-22.988 0-9.668 8.378-18.262 8.594-8.809 27.285-8.809 27.07 0 45.547 22.774 19.98-14.395 19.98-39.317 0-24.492-15.683-38.671-15.684-14.395-39.531-14.395-22.559 0-38.242 11.816-15.47 11.817-23.848 35.45-7.52-23.418-21.914-35.02-14.395-11.816-35.664-11.816-28.145 0-41.25 13.75-12.89 13.535-12.89 27.93 0 27.714 34.374 36.738 8.164 2.148 8.164 7.304 0 5.801-5.37 5.801-11.173 0-26.427-13.965-15.039-13.964-15.039-43.183 0-29.434 15.04-48.555 15.253-19.336 42.538-19.336 22.344 0 36.953 15.899 14.61 15.683 21.485 47.05 7.95-31.367 23.633-47.05 15.898-15.899 39.316-15.899 30.078 0 44.688 21.914 14.824 21.7 14.824 51.778 0 33.3-19.766 61.445 6.875 11.387 6.875 27.07 0 14.395-8.379 29.004-4.297 7.734-4.297 11.602 0 10.742 12.676 10.742 15.899 0 15.899-18.906zm-37.812-66.386q-12.031-21.27-36.738-21.27-9.024 0-16.328 4.942-7.305 4.726-7.305 12.46 0 13.106 23.633 13.106 20.195 0 36.738-9.238"/></svg>