<svg xmlns="http://www.w3.org/2000/svg" viewBox="0 0 512 512"><path d="M0 0h512v512H0z"/><path d="M376.527 328.74q15.04-5.586 22.559-15.898 7.734-10.313 7.734-25.137 0-21.7-16.328-43.613h-81.426q0 38.242-28.144 67.246-27.93 29.004-70.04 29.004-28.573 0-50.487-12.676-21.915-12.89-35.235-34.375-13.105-21.484-13.105-49.2H74.457v-30.507h41.465q8.379-23.203 24.277-39.531 16.113-16.329 39.746-25.782h-68.32v-29.648h136.64q23.204 0 34.805-9.668 11.602-9.883 11.602-29.434 0-19.98-19.336-32.87h7.734q22.774 16.542 22.774 44.902 0 21.484-14.395 39.101-14.18 17.617-45.332 17.617h-6.23q25.781 9.024 42.11 25.352 16.327 16.328 23.202 39.96h68.75q-17.832-32.655-17.832-47.91 0-17.187 9.668-25.566 9.883-8.379 22.774-8.379 18.046 0 30.078 15.899 12.031 15.683 12.031 36.523 0 21.485-7.734 35.88-7.52 14.394-22.774 21.698 22.559 22.559 28.145 34.375 5.8 11.817 5.8 24.707 0 16.758-10.742 28.145t-23.203 11.387q-15.039 0-23.633-11.602m-86.152-115.156q-4.297-29.004-26.855-47.05-22.344-18.263-52.637-18.263-29.863 0-51.992 17.403-21.914 17.402-28.36 47.91zm88.516 0q22.773 0 35.234-8.594 12.676-8.808 12.676-23.418 0-10.742-7.52-19.98-7.304-9.453-22.988-9.453-13.535 0-21.7 8.164-8.163 7.949-8.378 16.543 0 15.683 12.676 36.738m-88.516 30.508H130.531q6.66 29.433 29.004 46.406t47.48 16.973q31.583 0 55-18.047 23.419-18.047 28.36-45.332m-161.562-16.973"/></svg>