<svg xmlns="http://www.w3.org/2000/svg" viewBox="0 0 512 512"><path d="M0 0h512v512H0z"/><path d="M89.926 157.51q-7.52 3.222-13.535 18.261-6.016 14.825-6.23 31.153 0 34.804 26.855 67.675 27.07 32.872 66.172 32.872 24.492 0 38.027-15.04 13.75-15.039 13.75-41.035 0-15.039-4.297-34.375-4.512-19.336-4.512-36.738.215-30.937 15.469-49.2 15.254-18.26 38.242-18.26 32.656 0 49.2 25.35 16.757 25.137 16.757 59.942 0 8.379-.86 17.617-.644 9.239-.644 14.825 0 38.457 11.817 57.792 12.031 19.122 36.093 19.122 29.864 0 49.63-24.493 19.98-24.707 19.98-48.984 0-25.566-15.684-49.2-15.468-23.632-46.62-45.331-13.106-9.024-13.106-16.758 0-9.883 9.668-9.883 22.343 0 46.191 40.606 24.063 40.605 23.848 81.425.215 47.91-21.27 76.7-21.484 28.789-54.57 28.789-26.211 0-39.317-20.41-13.105-20.41-13.105-61.231 0-8.379 1.074-18.906.86-10.313.86-18.906 0-33.301-16.114-52.852-15.898-19.766-39.96-19.766-24.278 0-37.169 16.973-12.675 16.758-12.675 37.168 0 11.816 7.09 35.02 6.874 23.203 6.874 36.093 0 31.797-15.683 49.414-15.469 17.403-44.688 17.403-40.82 0-71.328-45.762-30.293-45.977-30.293-92.168 0-37.168 13.106-63.379t33.73-26.21q22.989 0 33.946 18.69 11.171 18.477 11.171 47.696 0 16.543-7.52 28.574t-22.558 12.031q-16.328 0-27.5-15.683t-11.172-36.524q0-3.437.86-10.097m64.023 10.097q0-11.816-8.594-20.625-8.378-8.808-22.988-8.808-9.883 0-19.55 7.734-9.454 7.734-9.454 22.773 0 8.594 7.52 18.477t22.129 9.883q11.172 0 21.054-7.09 9.883-7.305 9.883-22.344"/></svg>