<svg xmlns="http://www.w3.org/2000/svg" viewBox="0 0 512 512"><path d="M0 0h512v512H0z"/><path d="M16.02 157.51q-7.52 3.222-13.536 18.26-6.015 14.825-6.23 31.153 0 35.664 25.781 68.105 25.996 32.442 64.668 32.442 22.129 0 38.457-12.247t16.328-38.457q0-10.742-3.437-35.02-3.867-27.5-3.867-38.671 0-27.07 16.113-48.555 16.328-21.699 47.695-21.699 22.988 0 44.903 19.98 21.914 19.981 21.914 60.372 0 11.172-.86 23.847-1.504 8.594-1.504 23.633.215 29.434 16.758 48.125 16.758 18.692 44.688 18.692 23.203 0 38.027-15.899 14.824-16.113 14.824-39.316 0-11.172-3.867-35.235-3.867-24.277-3.867-39.316 0-29.219 17.832-47.05 17.832-17.833 45.117-17.833 26.64 0 46.621 16.113 19.98 16.114 30.723 43.399 10.742 27.07 10.742 64.883 0 51.562-15.254 77.343-15.039 25.782-45.332 25.782-21.27 0-36.094-16.114-14.61-16.328-14.824-40.39 0-20.196 13.106-31.582 13.105-11.602 26.21-11.602 11.602 0 18.907 7.735 7.304 7.52 7.304 18.476 0 21.27-21.484 21.27-18.691 0-18.691-18.907 0-4.296 2.148-9.882 2.148-5.801 2.148-7.52 0-1.504-1.933-1.504-7.734 0-13.75 8.164t-6.23 19.551q0 18.262 12.89 28.36 12.89 9.882 28.36 9.882 29.218 0 43.398-21.055 14.18-21.27 14.18-51.132 0-46.621-25.997-71.114-25.78-24.707-52.851-24.707-32.442 0-45.977 15.254t-13.535 35.45q0 8.808 3.867 34.374 3.868 25.782 3.868 36.954 0 25.996-16.114 48.125-15.898 21.914-45.976 21.914-32.012 0-49.63-24.063-17.616-24.062-17.616-52.851 0-11.172 1.933-27.07 1.504-12.032 1.504-24.278 0-23.848-15.683-43.828t-45.762-19.98q-27.715 0-41.465 15.038-13.75 14.825-13.75 44.473 0 10.742 3.437 32.012 3.438 21.27 3.438 37.597 0 31.582-13.965 47.266-13.75 15.684-41.25 15.684-41.035 0-71.328-44.688-30.293-44.902-30.293-93.242 0-37.168 13.105-63.379t33.731-26.21q22.988 0 33.945 18.69Q83.91 149.99 83.91 179.21q0 16.543-7.52 28.574t-22.558 12.031q-16.328 0-27.5-15.683T15.16 167.607q0-3.437.86-10.097m64.023 10.097q0-11.816-8.594-20.625-8.379-8.808-22.988-8.808-9.883 0-19.55 7.734-9.454 7.734-9.454 22.773 0 8.594 7.52 18.477t22.128 9.883q11.172 0 21.055-7.09 9.883-7.305 9.883-22.344"/></svg>