<svg xmlns="http://www.w3.org/2000/svg" viewBox="0 0 512 512"><path d="M0 0h512v512H0z"/><path d="M324.535 273.74q-2.578 33.3-17.617 50.059-14.824 16.543-41.895 16.543-30.293 0-50.058-22.344t-29.219-67.031q-6.445 44.687-24.922 67.03-18.476 22.345-49.199 22.345-27.715 0-42.969-18.477-15.039-18.476-15.039-39.531 0-14.824 8.38-24.707 8.593-10.098 24.491-10.098 10.313 0 19.551 7.735 9.453 7.734 9.453 22.128 0 15.254-9.023 22.774-9.024 7.305-19.98 7.305-10.098 0-19.981-6.23 11.172 34.804 41.25 34.804 16.328 0 32.87-17.832 16.544-18.047 16.544-64.453 0-51.348-18.477-93.887-18.261-42.54-48.77-42.54-12.03-.214-21.484 9.024-9.238 9.239-11.601 22.774 7.734-5.157 16.543-5.157 12.676 0 20.625 8.38 7.949 8.163 7.949 20.624 0 12.032-8.164 20.625-8.164 8.38-21.484 8.38-12.032-.216-21.055-10.098-8.809-10.098-8.809-23.203 0-25.782 14.61-40.82 14.61-15.04 38.027-15.04 32.441 0 57.363 32.227t33.301 77.773q8.594 45.977 24.277 66.817t42.97 20.84q19.335 0 37.812-17.188 18.691-17.402 18.691-51.133 0-30.937-25.351-62.305-25.137-31.582-63.594-31.582h-18.906v-29.648h65.312q23.203 0 34.805-9.668 11.601-9.883 11.601-29.434 0-19.98-19.336-32.87h7.735q22.773 16.542 22.773 44.902 0 24.921-16.113 40.82-15.899 15.684-43.399 15.898h-18.476q38.242 14.61 57.793 41.895 19.55 27.285 20.625 67.246 11.387 25.137 28.36 37.598 17.187 12.46 39.96 12.46 23.203 0 45.547-19.765t22.344-53.711q0-30.293-19.98-49.2-19.766-19.12-59.512-26.855-26.211-5.156-26.211-15.898 0-12.246 16.113-12.246 29.863 0 62.305 30.078 32.441 29.863 32.441 86.152 0 37.598-18.262 65.957-18.261 28.36-51.777 28.36-44.688 0-71.758-66.602M91.86 169.111q0-8.379-5.8-14.18-5.801-5.8-13.75-5.8-9.454 0-14.61 6.445-5.156 6.23-5.156 13.535 0 6.66 4.727 13.106 4.94 6.23 15.039 6.23 6.875 0 13.105-5.156 6.445-5.156 6.445-14.18m13.536 112.149q0-8.594-6.23-14.395-6.231-5.8-13.75-5.8-10.099 0-15.9 6.874-5.8 6.875-5.8 14.395 0 9.453 6.66 15.039t15.04 5.8q8.378 0 14.179-6.445 5.8-6.66 5.8-15.468"/></svg>