<svg xmlns="http://www.w3.org/2000/svg" viewBox="0 0 512 512"><path d="M0 0h512v512H0z"/><path d="M253.852 268.799q-5.372 35.879-21.055 53.71-15.469 17.833-41.465 17.833-30.723 0-46.621-21.27-15.684-21.27-15.684-48.77 0-29.003 13.535-41.894t29.434-12.89q12.89 0 24.492 9.238 11.817 9.023 11.817 24.707 0 12.46-9.024 20.625-8.808 7.949-21.484 7.949v-3.438q10.098-.859 15.254-5.8 5.156-5.157 5.156-14.61 0-10.527-8.594-17.832-8.593-7.304-20.41-7.304-15.898 0-25.566 9.238-9.668 9.023-9.883 22.773 0 20.625 15.469 33.516t38.886 12.89q26.426 0 42.97-13.964 16.757-14.18 23.632-42.54 7.95 28.36 21.484 42.54 13.75 13.965 32.871 13.965 28.36 0 42.97-18.907 14.609-18.906 14.609-42.539 0-33.515-14.395-58.437-14.395-25.137-38.457-38.028t-57.578-12.89q-35.45 0-47.05-2.363-11.388-2.364-11.388-9.668 0-11.817 20.84-11.817 61.66 0 111.29 42.11 49.843 41.894 49.843 109.57 0 30.508-14.824 53.281-14.824 22.559-45.762 22.559-28.144 0-44.473-17.832-16.328-17.832-20.84-53.711"/></svg>