<svg xmlns="http://www.w3.org/2000/svg" viewBox="0 0 512 512"><path d="M0 0h512v512H0z"/><path d="M253.852 268.799q-5.372 35.879-21.055 53.71-15.469 17.833-41.465 17.833-30.723 0-46.621-21.27-15.684-21.27-15.684-48.77 0-29.003 13.535-41.894t29.434-12.89q12.89 0 24.492 9.238 11.817 9.023 11.817 24.707 0 12.46-9.024 20.625-8.808 7.949-21.484 7.949v-3.438q10.098-.859 15.254-5.8 5.156-5.157 5.156-14.61 0-10.527-8.594-17.832-8.593-7.304-20.41-7.304-15.898 0-25.566 9.238-9.668 9.023-9.883 22.773 0 20.625 15.469 33.516t38.886 12.89q26.426 0 42.97-13.964 16.757-14.18 23.632-42.54 7.95 28.36 21.914 42.54 13.965 13.965 33.945 13.965 28.79 0 43.184-17.618t14.394-53.066q0-55.86-37.597-90.234-37.383-34.375-84.434-42.754 3.867 12.246 3.867 21.699 0 16.543-9.882 29.219-9.883 12.46-31.797 12.46-22.989-.214-36.524-17.831-13.32-17.832-13.32-45.547 0-7.305.43-11.172h3.867q0 25.996 12.031 38.887 12.246 12.89 36.523 12.89 16.329 0 24.493-6.875 8.379-7.09 8.379-21.27 0-10.097-4.297-17.402 51.562 3.223 95.605 44.903 44.258 41.68 44.258 111.504 0 42.539-15.254 63.808-15.039 21.27-45.332 21.27-28.144 0-44.473-17.832-16.328-17.832-20.84-53.711"/></svg>