<svg xmlns="http://www.w3.org/2000/svg" viewBox="0 0 512 512"><path d="M0 0h512v512H0z"/><path d="M257.182 268.799q-5.371 35.879-21.055 53.71-15.469 17.833-41.465 17.833-30.723 0-46.621-21.27-15.684-21.27-15.684-48.77 0-26.425 12.461-40.605t30.508-14.18q12.89 0 24.492 9.239 11.817 9.023 11.817 24.707 0 12.46-9.024 20.625-8.808 7.949-21.484 7.949v-3.438q10.098-.859 15.254-5.8 5.156-5.157 5.156-14.61 0-10.527-8.594-17.832-8.593-7.304-20.41-7.304-17.832 0-26.64 10.097-8.809 9.883-8.809 21.914 0 22.774 16.543 34.59t37.812 11.817q26.426 0 42.97-13.965 16.757-14.18 23.632-42.54 7.09 28.36 21.7 42.54 14.609 13.965 36.523 13.965 30.078 0 45.117-17.618 15.254-17.617 15.254-53.066 0-33.73-20.41-66.172t-58.868-32.441q-24.707 0-37.168 15.254-12.246 15.254-12.246 45.546-12.46-30.292-30.293-45.546t-40.82-15.254q-20.195 0-30.293 7.52-9.883 7.304-9.883 21.913 0 5.801 3.867 15.469l-4.296 1.074q-5.801-13.965-5.801-26.64 0-22.344 11.172-33.516t33.73-11.172q21.485 0 38.457 16.328 16.973 16.114 29.434 48.555 0-29.219 14.394-47.05 14.395-17.833 38.672-17.833 35.88 0 60.586 35.879 24.707 35.879 24.707 89.16 0 51.348-14.824 76.914t-44.258 25.567q-28.144 0-44.473-17.832-16.328-17.832-20.84-53.711"/></svg>