<svg xmlns="http://www.w3.org/2000/svg" viewBox="0 0 512 512"><path d="M0 0h512v512H0z"/><path d="M204.438 64.053q9.667 18.476 9.667 27.5 0 10.742-6.445 16.113-6.23 5.156-18.691 5.156h-58.223V92.197h59.512q7.304 0 10.957-2.793 3.652-3.008 3.652-8.808 0-6.016-6.23-16.543h-72.188v-27.07H297.25q45.117 0 67.031 25.78 22.13 25.567 22.13 59.297 0 39.746-17.403 59.942-17.188 19.98-41.68 19.98-25.996 0-39.746-16.972-13.535-17.188-13.535-37.813.215-19.55 11.172-33.086 10.957-13.75 28.144-13.75 11.817 0 19.121 7.735 7.52 7.52 7.52 17.402 0 10.957-5.156 16.328-4.942 5.371-14.825 5.371-7.734 0-13.32-5.156-5.586-5.371-5.586-12.246 0-9.024 7.09-14.395 7.09-5.37 7.09-6.875 0-3.867-3.867-3.867-13.32 0-22.774 12.031-9.238 12.032-9.238 26.211 0 12.031 10.957 24.278 10.957 12.03 34.59 12.03 25.351 0 41.25-15.468 15.898-15.469 15.898-40.176 0-26.855-17.402-43.183-17.188-16.543-40.82-16.328zm58.007 200.879q-7.52 37.812-23.847 56.718-16.114 18.692-41.035 18.692-29.004 0-44.258-18.262-15.254-18.477-15.254-40.176 0-16.328 9.238-32.012 9.238-15.683 27.93-30.507 13.105-10.313 19.55-21.27 6.66-11.172 6.66-22.773 0-16.114-9.023-23.633-9.023-7.735-18.476-7.735-17.832 0-26.426 9.024t-8.594 20.41q0 10.098 4.942 16.543 5.156 6.23 15.468 8.594l-1.504 3.008q-15.898-2.793-23.847-12.676t-7.95-27.07q0-21.055 13.32-32.012 13.536-11.172 30.079-11.172 22.773 0 33.945 14.61 11.172 14.394 11.172 32.44 0 16.544-8.164 28.575-7.95 12.031-29.648 29.434-11.387 9.238-17.188 19.335-5.586 9.883-5.586 20.41.215 19.766 12.031 32.012 12.032 12.032 34.375 12.032 22.13 0 39.317-19.122 17.402-19.335 22.773-46.62 9.239 32.87 25.567 49.413 16.328 16.329 39.746 16.329 19.765 0 35.449-11.172 15.898-11.172 15.898-32.871 0-13.106-10.742-22.344-10.527-9.238-25.566-10.098v-4.297q21.914 1.29 32.871 13.965 11.172 12.676 11.172 36.738 0 28.575-16.328 45.762t-41.895 17.188q-26.426 0-42.969-18.692-16.543-18.906-23.203-56.718"/></svg>