<svg xmlns="http://www.w3.org/2000/svg" viewBox="0 0 512 512"><path d="M0 0h512v512H0z"/><path d="M53.188 160.303q-13.106 18.476-13.106 43.183 0 49.414 37.383 76.7 37.598 27.285 83.574 27.285 58.008 0 87.441-32.657 29.649-32.656 29.649-71.328 0-29.863-13.535-48.984l-9.024 59.082h-115.8v-31.367h82.714q-29.433-9.883-29.433-37.383 0-14.61 8.808-23.203 8.809-8.809 23.204-8.809 24.492 0 41.035 23.633 16.543 23.418 16.543 68.32 0 60.586-33.516 98.184-33.3 37.383-88.945 37.383-36.309 0-65.313-18.262t-44.043-47.266-15.039-68.535q0-40.176 13.535-66.816t36.739-26.64q14.824 0 23.418 11.6 8.593 11.387 8.593 31.583 0 23.418-9.883 37.597-9.667 14.18-24.921 14.18-13.75 0-20.41-11.172-6.66-11.387-9.669-36.308m206.68-.43q0-12.031-7.735-21.27-7.52-9.238-18.047-9.238-10.313 0-15.899 6.875-5.37 6.875-5.37 15.469 0 13.105 7.519 21.7 7.52 8.593 17.617 8.808 9.668 0 15.684-6.66 6.23-6.66 6.23-15.684m-146.31.43q0-22.13-27.07-22.13-10.957 0-19.55 6.231-8.38 6.23-8.38 18.477 0 22.129 27.5 22.129 13.965 0 20.626-7.95 6.875-7.949 6.875-16.757m362.872 74.55q0 51.133-21.485 78.418-21.484 27.07-54.57 27.07-26.855 0-51.992-23.202-24.922-23.204-24.922-81.211 0-46.622 21.7-74.336 21.913-27.93 54.784-27.93 19.98 0 37.383 11.172 17.617 10.957 28.36 33.515 10.742 22.56 10.742 56.504m-4.512 3.008q0-32.656-19.766-51.562-19.55-19.121-48.984-19.121-35.664 0-55.43 18.691-19.765 18.477-19.98 50.918 0 32.012 20.41 51.348 20.625 19.336 51.133 19.336 26.64 0 49.629-16.543 22.988-16.758 22.988-53.067"/></svg>