<svg xmlns="http://www.w3.org/2000/svg" viewBox="0 0 512 512"><path d="M0 0h512v512H0z"/><path d="M94.867 160.303q-13.105 18.476-13.105 43.183 0 49.414 37.383 76.7 37.597 27.285 83.574 27.285 58.008 0 87.441-32.657 29.649-32.656 29.649-71.328 0-29.863-13.536-48.984l-9.023 59.082h-115.8v-31.367h82.714q-29.434-9.883-29.434-37.383 0-14.61 8.81-23.203 8.808-8.809 23.202-8.809 24.492 0 41.035 23.633 16.543 23.418 16.543 68.32 0 60.586-33.515 98.184-33.301 37.383-88.946 37.383-36.308 0-65.312-18.262t-44.043-47.266-15.04-68.535q0-40.176 13.536-66.816t36.738-26.64q14.825 0 23.418 11.6 8.594 11.387 8.594 31.583 0 23.418-9.883 37.597-9.668 14.18-24.922 14.18-13.75 0-20.41-11.172-6.66-11.387-9.668-36.308m206.68-.43q0-12.031-7.735-21.27-7.519-9.238-18.046-9.238-10.313 0-15.899 6.875-5.37 6.875-5.37 15.469 0 13.105 7.519 21.7 7.52 8.593 17.617 8.808 9.668 0 15.683-6.66 6.23-6.66 6.23-15.684m-146.309.43q0-22.13-27.07-22.13-10.957 0-19.55 6.231-8.38 6.23-8.38 18.477 0 22.129 27.5 22.129 13.965 0 20.625-7.95 6.875-7.949 6.875-16.757m279.512 17.402q0 18.691-9.453 32.012-9.453 13.105-25.352 13.105-16.972 0-25.996-13.32-8.808-13.32-8.808-31.153 0-18.046 8.808-30.937 8.809-13.106 26.856-13.106 16.972 0 25.351 12.891 8.594 12.676 8.594 30.508m-3.867 1.504q0-12.461-8.594-21.485t-21.914-9.023q-13.75 0-22.559 8.379-8.808 8.379-8.808 22.129 0 12.031 9.023 19.98 9.024 7.735 21.914 7.735 14.395 0 22.559-9.239 8.379-9.238 8.379-18.476m3.867 119.668q0 17.402-9.883 29.433-9.668 12.032-25.351 12.032-16.114 0-25.352-13.32-9.023-13.536-9.023-31.153 0-22.988 10.527-33.73 10.742-10.743 23.848-10.743 13.32 0 24.277 10.528 10.957 10.312 10.957 36.953m-3.867-1.934q0-13.965-8.809-21.699-8.808-7.95-22.129-7.95-13.965 0-22.558 8.38-8.38 8.379-8.38 19.765 0 12.676 8.595 20.84 8.808 8.164 21.914 8.164 10.742 0 21.054-7.304 10.313-7.305 10.313-20.196"/></svg>