<svg xmlns="http://www.w3.org/2000/svg" viewBox="0 0 512 512"><path d="M0 0h512v512H0z"/><path d="M256.967 148.271q9.238 6.875 9.238 15.899 0 9.238-8.809 15.039h78.418v30.508h-59.511q22.558 8.593 33.73 24.492 11.387 15.683 11.387 38.887 0 28.359-18.047 47.91-17.832 19.336-46.836 19.336-32.871 0-49.844-19.98-16.972-20.196-16.972-42.325 0-26.426 11.386-43.398 11.602-17.188 34.59-24.922h-59.941v-30.508h61.875q7.305 0 13.105-4.727 5.801-4.941 5.801-11.172 0-8.808-7.305-15.039h-73.476v-29.648H279.31q23.203 0 34.804-9.668 11.602-9.883 11.602-29.434 0-19.98-19.336-32.87h7.734q22.774 16.542 22.774 44.902 0 25.136-16.114 41.035-15.898 15.683-43.398 15.683zm45.976 112.793q0-21.914-13.964-36.738-13.965-15.039-35.45-15.039-21.699 0-34.375 16.113-12.46 15.899-12.46 34.16 0 16.543 12.245 32.227 12.247 15.684 36.524 15.684 20.195 0 33.73-13.75 13.75-13.75 13.75-32.657"/></svg>