<svg xmlns="http://www.w3.org/2000/svg" viewBox="0 0 512 512"><path d="M0 0h512v512H0z"/><path d="M238.705 286.63q-16.543 26.856-36.953 40.391-20.41 13.32-44.473 13.32-25.351 0-41.894-15.683t-16.543-27.285q0-12.246 18.476-30.723 18.692-18.691 56.934-18.691 26.64 0 57.578 18.906 21.914-25.566 21.914-55.644 0-37.813-18.906-55.43t-42.54-17.617q-15.683 0-27.07 8.164-11.171 8.164-11.171 21.27 0 11.171 7.52 18.476 7.519 7.09 13.75 7.09 1.933 0 1.933-2.364 0-.214-2.793-4.511-2.578-4.297-2.578-8.594 0-7.734 4.082-11.602 4.297-3.867 12.89-3.867 7.95 0 11.817 4.727 4.082 4.511 4.082 13.75 0 9.238-6.23 13.75-6.016 4.511-18.048 4.511-15.253 0-24.707-12.89-9.453-13.106-9.453-27.285 0-20.196 12.246-33.086 12.461-12.89 31.153-12.89 29.433 0 48.554 31.581 19.336 31.367 19.336 72.188 0 27.07-12.675 59.941 18.261 15.469 35.234 23.203 16.973 7.735 32.441 7.735 35.235 0 57.149-31.582 21.914-31.797 21.914-70.47 0-44.042-33.086-82.714-32.871-38.887-63.379-38.887-7.52 0-12.46 4.082-5.587 4.727-9.24 4.727-5.585 0-8.378-2.793t-2.793-8.38q0-7.089 7.52-12.46t19.55-5.371q41.035 0 75.41 51.777 34.59 51.563 34.59 112.149 0 58.652-24.277 85.722t-54.57 27.07q-19.336 0-33.516-8.808-14.18-9.023-48.34-44.902M226.03 275.46q-12.675-11.602-27.5-17.403t-31.582-5.8q-20.625 0-39.316 12.246-18.477 12.246-18.692 24.062 0 9.239 12.891 16.758 13.106 7.52 30.293 7.52 21.27 0 39.746-9.239 18.477-9.453 34.16-28.144"/></svg>