<svg xmlns="http://www.w3.org/2000/svg" viewBox="0 0 512 512"><path d="M0 0h512v512H0z"/><path d="M353.002 340.342h-29.434v-79.278q0-45.976-19.12-79.277-18.907-33.516-47.266-33.516-30.938-.215-49.844 38.243-18.692 38.242-18.906 90.02v63.808h-29.434v-44.473q0-46.621 18.477-87.012 18.476-40.39 58.437-60.586h-76.914v-29.648h136.426q23.203 0 34.805-9.668 11.601-9.883 11.601-29.434 0-19.98-19.336-32.87h7.735q22.773 16.542 22.773 44.902 0 24.921-15.898 40.82-15.899 15.898-43.614 15.898h-16.543q34.805 15.47 55.43 53.282 20.84 37.812 20.625 80.78z"/></svg>