<svg xmlns="http://www.w3.org/2000/svg" viewBox="0 0 512 512"><path d="M0 0h512v512H0z"/><path d="M106.361 148.271v-29.648H295.64q23.203 0 34.804-9.668 11.602-9.883 11.602-29.434 0-19.98-19.336-32.87h7.734q22.774 16.542 22.774 44.902 0 25.136-16.113 41.035-15.899 15.683-43.399 15.683zm238.047 67.246q7.735 34.805 7.735 58.008 0 31.153-16.543 48.985-16.329 17.832-42.325 17.832-27.93 0-44.043-17.832t-20.41-53.711q-5.37 35.879-21.054 53.71-15.47 17.833-41.465 17.833-27.5 0-44.903-19.336-17.402-19.551-17.402-50.703 0-26.211 12.461-40.391 12.46-14.395 30.508-14.395 14.394 0 25.351 9.883t10.957 24.063q0 12.676-9.238 20.625-9.023 7.949-21.27 7.949v-3.438q10.098-.859 15.254-5.8 5.157-5.157 5.157-14.61 0-11.816-9.239-18.476-9.238-6.66-19.765-6.66-17.832 0-26.64 10.097-8.81 9.883-8.81 21.914 0 22.774 16.544 34.59 16.543 11.817 37.812 11.817 26.426 0 42.969-13.965 16.758-14.18 23.633-42.54 9.238 32.227 22.558 44.473 13.32 12.032 35.235 12.032 24.492 0 41.68-15.47 17.187-15.683 17.187-36.308 0-18.691-15.899-42.969-13.964-21.484-13.964-30.078 0-11.172 10.097-11.172 5.801 0 9.668 13.106 6.445 21.27 13.535 29.863 7.305 8.38 21.914 8.38 17.188 0 25.782-11.388 8.593-11.386 8.593-25.996 0-17.187-17.617-37.168-15.469-17.832-15.469-26.21 0-6.66 3.868-6.66 7.949 0 21.054 27.5 13.32 27.284 13.32 56.718 0 18.691-6.445 32.441-6.445 13.536-18.691 13.536-8.164 0-14.18-3.868-6.015-4.082-27.5-26.21m-94.746-30.507q0 7.304-5.371 13.964-5.371 6.446-15.039 6.446-9.453 0-14.824-6.446-5.371-6.66-5.371-13.964 0-5.801 2.793-10.313t7.304-7.09q4.512-2.793 10.098-2.793 5.8 0 10.312 2.793 4.727 2.578 7.305 7.09 2.793 4.512 2.793 10.313m-1.074 207.109q0 8.809-5.586 14.395-5.371 5.8-14.18 5.8-10.312 0-15.468-5.586-4.942-5.586-4.942-16.543 0-21.27 20.41-74.98 19.766 53.281 19.766 76.914"/></svg>