<svg xmlns="http://www.w3.org/2000/svg" viewBox="0 0 512 512"><path d="M0 0h512v512H0z"/><path d="M260.62 264.932q-7.52 37.812-23.849 56.718-16.113 18.692-41.035 18.692-28.789 0-44.257-18.692-15.254-18.906-15.254-41.25 0-16.543 9.238-32.011 9.453-15.684 28.144-30.508 14.18-11.172 21.27-22.989 7.305-11.816 7.305-24.277 0-14.824-9.883-23.633-9.668-9.023-20.625-8.808-16.543 0-25.781 8.379-9.024 8.378-9.024 21.054 0 9.883 4.942 16.114 5.156 6.015 15.253 8.593l-1.503 2.793q-15.899-2.578-23.848-12.246-7.95-9.883-7.95-26.855 0-20.41 12.462-31.797 12.675-11.387 29.648-11.387 19.766 0 33.945 11.172 14.395 11.172 14.395 36.738 0 8.594-1.934 15.04 23.203-31.368 47.48-47.051 24.278-15.899 49.845-15.899 33.3 0 51.992 15.684 18.691 15.468 18.691 44.902 0 18.477-16.973 31.367l-3.867-2.793q7.735-8.593 7.735-17.402 0-21.7-19.766-33.945-19.766-12.461-47.05-12.461-21.915 0-40.821 7.949-18.691 7.95-34.16 23.848-19.98 25.78-50.274 52.421-11.386 9.239-17.187 19.122-5.586 9.882-5.586 20.41 0 17.402 10.742 31.582 10.742 13.965 35.664 13.965 23.203 0 39.961-19.98 16.973-20.196 21.914-45.763 9.238 32.871 25.567 49.414 16.328 16.329 39.746 16.329 22.343 0 36.953-12.032 14.61-12.246 14.394-32.011 0-14.18-11.172-22.989-11.171-8.808-25.136-9.453v-4.297q21.914 1.29 32.87 13.965 11.173 12.676 11.173 36.738 0 32.657-18.047 47.91-18.047 15.04-39.961 15.04-26.426 0-42.969-18.692-16.543-18.906-23.418-56.718m27.714-73.047q0 8.379-6.016 14.394-6.015 5.8-14.394 5.8-7.95 0-13.965-6.015-5.8-6.015-5.8-14.18 0-9.667 6.445-15.038t13.32-5.372q7.305 0 13.75 5.372 6.66 5.37 6.66 15.039"/></svg>