<svg xmlns="http://www.w3.org/2000/svg" viewBox="0 0 512 512"><path d="M0 0h512v512H0z"/><path d="M384.477 210.146h-47.48q23.417 10.743 35.233 27.93 11.817 17.188 11.817 40.82 0 25.352-16.758 43.399-16.543 18.047-41.894 18.047-26.426 0-42.97-18.692-16.542-18.906-23.417-56.719-7.52 37.813-23.848 56.72-16.113 18.69-41.035 18.69-28.79 0-44.258-18.69-15.254-18.907-15.254-41.25 0-16.544 9.239-32.012 9.453-15.684 28.144-30.508 14.18-11.172 21.27-22.989 7.304-11.816 7.304-24.277 0-14.824-9.883-23.633-9.667-9.023-20.625-8.808-16.542 0-25.78 8.379-9.024 8.378-9.024 21.054 0 9.883 4.941 16.114 5.156 6.015 15.254 8.593l-1.504 2.793q-15.898-2.578-23.847-12.246-7.95-9.883-7.95-26.855 0-20.41 12.461-31.797 12.676-11.387 29.649-11.387 19.765 0 33.945 11.172 14.395 11.172 14.395 36.738 0 17.617-9.239 31.153-9.023 13.32-29.863 30.507-11.387 9.239-17.188 19.122-5.585 9.882-5.585 20.41 0 17.402 10.742 31.582 10.742 13.965 35.664 13.965 23.203 0 39.96-19.98 16.973-20.196 21.915-45.763 9.238 32.871 25.566 49.414 16.328 16.329 39.746 16.329 18.907 0 34.16-10.528 15.254-10.527 15.254-31.152 0-24.707-21.27-40.176-21.054-15.469-44.042-15.469H275.55v-29.863h56.504q10.742 0 16.113-4.082 5.371-4.297 5.371-12.89 0-9.669-10.312-16.544-4.297 1.504-15.899 1.504H275.55v-29.648h50.703q23.203 0 34.805-9.668 11.816-9.883 11.816-29.434 0-9.882-4.941-18.047-4.727-8.378-14.395-14.824h7.734q11.387 8.38 16.973 19.551 5.8 11.172 5.8 25.352 0 17.187-10.097 32.441-10.097 15.04-24.922 20.84 15.04 11.172 15.04 20.41 0 8.594-11.172 15.04h31.582z"/></svg>