<svg xmlns="http://www.w3.org/2000/svg" viewBox="0 0 512 512"><path d="M0 0h512v512H0z"/><path d="M255.57 265.361q-7.52 33.516-23.847 54.356-16.114 20.625-35.235 20.625-29.863 0-47.695-35.02-17.617-35.02-17.617-87.441 0-49.2 14.824-77.13 15.04-27.929 40.39-27.929 18.692 0 28.145 13.75t9.453 41.035q0 22.13-9.238 34.805t-24.492 12.676-24.492-13.106q-9.024-13.32-9.024-30.508 0-11.171 1.934-18.906-11.602 9.883-17.403 25.567-5.8 15.683-5.8 37.382 0 36.094 17.187 64.024t45.762 27.93q21.055 0 35.234-15.04 14.395-15.253 21.914-45.546 7.305 30.293 22.559 45.547 15.254 15.039 38.457 15.039 20.41 0 35.664-17.832 15.469-17.833 15.469-45.977 0-23.203-6.446-40.82-6.445-17.832-19.335-30.078-25.567-24.493-49.63-24.493H256v-29.648h65.313q23.203 0 34.804-9.668 11.602-9.883 11.602-29.434 0-19.98-19.336-32.87h7.734q22.774 16.542 22.774 44.902 0 21.484-14.18 39.101t-45.332 17.617h-4.727q33.086 16.758 49.63 43.184 16.542 26.426 16.542 62.305 0 31.582-18.047 59.082t-45.761 27.5q-21.27 0-37.813-21.055-16.328-21.27-23.633-53.926m-35.879-100.117q0-11.602-7.52-19.336-7.304-7.734-19.98-7.734-15.683 0-23.418 6.875t-7.734 20.625q.215 10.957 8.164 18.691 8.164 7.734 19.98 7.95 30.508 0 30.508-27.071m55.645 226.875q0 7.734-4.941 13.965-4.942 6.23-14.825 6.23-10.312 0-15.468-5.586-4.942-5.586-4.942-16.543 0-21.27 20.41-74.98 19.766 53.281 19.766 76.914"/></svg>