<svg xmlns="http://www.w3.org/2000/svg" viewBox="0 0 512 512"><path d="M0 0h512v512H0z"/><path d="M262.23 264.932q-7.52 37.812-23.847 56.718-16.113 18.692-41.035 18.692-28.79 0-44.258-18.692-15.254-18.906-15.254-41.25 0-16.543 9.238-32.011 9.453-15.684 28.145-30.508 14.18-11.172 21.27-22.989 7.304-11.816 7.304-24.277 0-14.824-9.883-23.633-9.668-9.023-20.625-8.808-16.543 0-25.781 8.379-9.024 8.378-9.024 21.054 0 9.883 4.942 16.114 5.156 6.015 15.254 8.593l-1.504 2.793q-15.899-2.578-23.848-12.246-7.949-9.883-7.949-26.855 0-20.41 12.46-31.797 12.677-11.387 29.65-11.387 16.542 0 27.5 6.445 11.171 6.446 16.542 19.336 16.114 15.684 35.235 23.633 19.336 7.735 41.68 7.735 25.136 0 47.05-13.106 22.13-13.105 22.13-33.3 0-5.587-1.505-9.239h4.512q4.726 11.172 4.726 21.27 0 24.921-20.41 42.968-20.195 18.047-47.265 18.047-23.203 0-42.325-11.816-18.906-11.817-41.035-38.028 1.504 6.66 1.504 13.965 0 17.617-9.238 31.153-9.023 13.32-29.863 30.507-11.387 9.239-17.188 19.122-5.586 9.882-5.586 20.41 0 17.402 10.742 31.582 10.743 13.965 35.664 13.965 23.204 0 39.961-19.98 16.973-20.196 21.914-45.763 9.239 32.871 25.567 49.414 16.328 16.329 39.746 16.329 22.344 0 36.953-12.032 14.61-12.246 14.395-32.011 0-14.18-11.172-22.989-11.172-8.808-25.137-9.453v-4.297q21.914 1.29 32.871 13.965 11.172 12.676 11.172 36.738 0 32.657-18.047 47.91-18.047 15.04-39.96 15.04-26.427 0-42.97-18.692-16.543-18.906-23.418-56.718"/></svg>