<svg xmlns="http://www.w3.org/2000/svg" viewBox="0 0 512 512"><path d="M0 0h512v512H0z"/><path d="M356.117 271.592q-4.941 32.011-23.418 50.488-18.262 18.262-43.398 18.262-44.258 0-71.543-69.825-9.238 31.797-35.664 50.918-26.426 18.907-61.875 18.907-34.375 0-66.387-25.782-31.797-25.78-31.797-72.402 0-31.797 16.758-55.215 16.758-23.633 50.488-38.672H22.035v-29.648h142.227q23.203 0 34.804-9.668 11.602-9.883 11.602-29.434 0-9.882-4.941-18.047Q201 53.096 191.332 46.65h7.734q11.387 8.38 16.973 19.551 5.8 11.172 5.8 25.352 0 25.136-15.898 41.035-15.683 15.683-43.613 15.683h-7.734q33.515 14.18 50.273 37.168 16.973 22.989 16.973 54.785 0 9.668-1.504 18.907 11.387 24.277 28.144 36.308 16.758 12.032 38.887 12.032 22.344 0 43.613-19.122 21.27-19.12 21.27-55 0-29.003-18.477-47.05-18.476-18.262-55.43-25.567-16.327-3.008-24.491-7.52-7.95-4.511-7.95-10.312 0-5.156 4.512-7.734 4.512-2.793 13.75-2.793 22.129 0 44.043 14.394 22.129 14.18 35.664 40.606 13.535 26.21 13.535 62.95v7.519q11.387 24.922 27.715 37.382 16.543 12.247 38.242 12.247 29.864 0 47.696-23.418 17.832-23.633 17.832-50.059 0-30.293-19.98-49.2-19.766-19.12-59.298-26.855-13.105-2.578-19.765-6.445-6.446-4.082-6.446-9.453 0-6.016 3.868-9.024 4.082-3.222 12.246-3.222 28.789 0 61.66 29.219 33.086 29.218 33.086 87.011 0 38.028-17.617 66.172-17.403 28.145-50.274 28.145-43.398 0-70.254-68.75m-152.539-47.266q0-36.094-25.566-56.074-25.567-19.98-55.86-19.98-39.96 0-61.015 25.136-20.84 24.922-20.84 53.711.215 32.871 23.633 56.719 23.633 23.633 56.718 23.633 30.508 0 56.72-20.84 26.21-20.84 26.21-62.305m174.883 167.793q0 7.734-4.941 13.965-4.942 6.23-14.825 6.23-10.312 0-15.468-5.586-4.942-5.586-4.942-16.543 0-21.27 20.41-74.98 19.766 53.281 19.766 76.914"/></svg>