<svg xmlns="http://www.w3.org/2000/svg" viewBox="0 0 512 512"><path d="M0 0h512v512H0z"/><path d="M296.82 250.967q5.801 9.238 5.801 21.27 0 12.46-7.305 27.07-5.156 10.527-5.156 18.261 0 5.586 3.223 8.38 3.437 2.792 10.312 2.792 7.95 0 12.89-4.297 5.157-4.297 7.306-13.105h3.437q-1.504 14.61-8.379 21.914-6.66 7.09-18.691 7.09-13.32 0-21.7-7.305-8.163-7.52-8.378-20.195 0-12.461 11.601-33.516 6.875-12.031 6.875-20.195-19.98 14.394-46.406 14.394-15.254 0-25.781-8.164-10.528-8.164-10.528-20.41 0-9.453 8.594-18.691 8.809-9.239 29.004-9.239 15.898 0 27.715 5.801 12.031 5.8 19.766 17.402 23.203-11.386 23.203-39.746 0-18.906-13.965-35.449-13.965-16.758-42.11-16.758-25.351 0-42.109 11.172-16.758 10.957-25.137 32.871-7.09-21.914-22.988-32.87-15.898-11.173-40.39-11.173-20.84 0-37.813 10.743t-16.973 29.863q0 14.394 8.164 23.847 8.164 9.239 24.707 13.536 12.246 3.007 12.246 7.09 0 5.8-6.445 5.8-11.601 0-27.285-15.254-15.684-15.468-15.684-45.117 0-23.848 15.04-44.902t42.968-21.055q25.567 0 41.25 15.899 15.899 15.898 22.13 47.695 9.023-31.797 25.566-47.695 16.757-15.899 40.82-15.899 25.781 0 42.969 18.477 17.187 18.476 20.41 45.976 7.09-32.226 23.633-48.34 16.757-16.113 43.183-16.113 25.137 0 41.035 20.195 16.114 20.196 16.114 49.2 0 23.418-14.825 39.96-14.824 16.544-30.722 16.544-4.942 0-4.942-4.297 0-4.512 2.364-6.016 2.363-1.719 12.675-4.082 12.461-3.008 21.7-12.676 9.453-9.883 9.238-21.27 0-20.624-16.543-31.366-16.328-10.743-39.531-10.743-26.211 0-41.465 12.032-15.254 11.816-23.418 45.976-7.52 32.442-21.27 44.688m-10.527-7.95q-5.8-10.742-15.254-16.113-9.453-5.586-22.559-5.586-10.312 0-18.69 4.942-8.38 4.941-8.38 11.601 0 15.469 24.707 15.469 18.047 0 40.176-10.313"/></svg>