<svg xmlns="http://www.w3.org/2000/svg" viewBox="0 0 512 512"><path d="M0 0h512v512H0z"/><path d="M259.008 264.502q-4.512 38.027-19.98 56.933-15.47 18.907-41.895 18.907-25.996 0-44.473-24.493-18.476-24.707-18.476-75.625 0-24.492 10.312-46.406 10.313-21.914 31.152-28.144-20.625-5.371-30.937-15.254-10.098-9.883-10.098-24.492 0-17.403 13.535-25.996 13.536-8.81 40.606-8.81v4.298q-13.106 2.578-21.27 13.535t-8.164 23.848q0 24.492 29.004 32.441 14.61 4.082 21.914 15.04 7.52 10.741 7.52 28.573 0 14.61-7.735 26.856-7.52 12.246-23.632 12.246-11.602 0-19.336-9.238-7.735-9.454-7.735-26.641 0-10.098 2.793-20.195-9.453 4.941-16.543 19.336t-7.09 24.707q0 27.285 15.04 49.414t43.613 22.129q22.558 0 38.027-14.395t23.848-43.184q11.387 32.872 24.707 45.332 13.535 12.247 34.375 12.247 28.789 0 45.332-18.047t16.543-38.028q.215-19.765-13.106-31.582-13.32-12.03-34.375-12.03h-27.93V184.58h31.368q10.957 0 17.617-8.809t6.66-22.773q0-15.469-9.453-28.36-9.453-13.105-32.656-13.105-1.504 0-4.512.43t-4.726.43q-9.239 0-9.239-9.669 0-11.601 17.403-11.601 21.699 0 36.308 17.402 14.61 17.188 14.61 37.813 0 12.246-5.801 23.418-5.586 10.957-16.973 21.054 19.55 10.313 29.219 28.145 9.883 17.832 9.883 42.969 0 34.59-18.262 56.504-18.047 21.914-45.117 21.914-26.856 0-40.606-15.254t-21.27-60.586m-45.117-59.727q0-10.097-6.875-16.543-6.875-6.66-17.618-6.66-25.351 0-25.351 23.203 0 24.707 25.781 24.707 8.594 0 16.328-6.23 7.735-6.23 7.735-18.477"/></svg>