<svg xmlns="http://www.w3.org/2000/svg" viewBox="0 0 512 512"><path d="M0 0h512v512H0z"/><path d="M224.418 148.271h-67.246v-29.648h142.226q23.204 0 34.805-9.668 11.602-9.883 11.602-29.434 0-19.98-19.336-32.87h7.734q22.774 16.542 22.774 44.902 0 25.136-15.899 41.035-15.683 15.683-43.613 15.683h-7.735q33.516 14.18 50.274 37.168 16.973 22.989 16.973 54.785 0 29.434-13.106 51.778-12.89 22.129-35.664 35.234-22.773 13.106-52.852 13.106-34.375 0-66.386-25.782-31.797-25.78-31.797-72.402 0-31.797 16.758-55.215 16.758-23.633 50.488-38.672m114.297 76.055q0-36.094-25.567-56.074-25.566-19.98-55.859-19.98-39.96 0-61.016 25.136-20.84 24.922-20.84 53.711.215 32.871 23.633 56.719 23.633 23.633 56.72 23.633 30.507 0 56.718-20.84 26.21-20.84 26.21-62.305m-61.66 2.363q0 10.957-6.446 16.328-6.445 5.372-13.75 5.372-9.882 0-15.039-6.23-4.941-6.446-4.941-13.966 0-8.594 5.8-14.394 5.801-6.016 14.18-6.016 9.883 0 15.04 6.23 5.156 6.231 5.156 12.676"/></svg>