<svg xmlns="http://www.w3.org/2000/svg" viewBox="0 0 512 512"><path d="M0 0h512v512H0z"/><path d="M306.166 148.271q27.285 9.883 40.82 24.493 13.75 14.394 13.75 33.515 0 5.371-.43 7.735 23.204 25.351 23.204 57.578 0 28.574-18.047 48.77-18.047 19.98-44.473 19.98-26.21 0-43.398-17.832-16.973-18.047-24.707-54.141-7.305 36.094-21.914 54.14-14.61 17.833-36.739 17.833-24.707 0-43.398-23.418-18.477-23.418-18.477-61.66 0-30.938 18.477-61.016 18.691-30.078 65.742-45.977h-84.219v-29.648h194.004q23.203 0 34.805-9.668 11.602-9.883 11.602-29.434 0-9.882-4.942-18.047-4.726-8.378-14.394-14.824h7.734q11.387 8.38 16.973 19.551 5.8 11.172 5.8 25.352 0 21.484-14.18 39.101t-45.331 17.617zm53.066 71.543q-7.52 15.04-18.906 22.559-11.387 7.52-26.426 7.52-12.675 0-23.847-7.305-11.172-7.52-11.172-20.84 0-13.535 9.453-20.195 9.453-6.875 28.36-6.875 13.964 0 34.374 10.742l.43-4.512q.215-23.203-24.707-38.027-24.707-14.825-62.305-14.61-53.71 0-86.367 25.782-16.328 12.89-24.492 30.722-8.164 17.617-8.164 40.176t12.46 42.54q12.677 19.98 38.673 19.98 20.195 0 35.449-17.188 15.469-17.187 21.27-41.25 7.949 29.219 23.417 43.828 15.47 14.61 38.457 14.61 27.5 0 42.754-15.684 15.47-15.684 15.47-36.523 0-18.262-14.18-35.45m-10.097-7.734q-10.528-13.106-33.946-13.106-12.03 0-20.195 5.372-8.164 5.156-8.379 13.105 0 4.941 6.23 10.742 6.446 5.801 19.551 5.801 11.387-.215 21.915-6.445 10.527-6.446 14.824-15.47"/></svg>