<svg xmlns="http://www.w3.org/2000/svg" viewBox="0 0 512 512"><path d="M0 0h512v512H0z"/><path d="M314.545 291.572v-3.437q9.883-1.504 14.824-6.23 4.942-4.942 4.942-13.106 0-10.743-8.594-17.618-8.38-7.09-19.98-7.09-18.048 0-26.212 10.098-8.164 9.883-8.164 23.203 0 15.04 11.387 28.575 11.602 13.535 36.094 13.535 37.597 0 55-24.922 17.617-25.137 17.617-60.586 0-30.937-21.055-58.223-20.84-27.5-59.297-27.5-25.351 0-41.464 14.825-16.114 14.609-22.989 43.828-6.875-29.22-23.203-43.828-16.328-14.825-42.11-14.825-20.624 0-33.515 11.602-12.89 11.387-12.89 29.434 0 19.12 12.675 30.937 12.891 11.816 38.672 16.113-25.566 6.016-38.242 18.262t-12.676 30.508q0 16.758 13.106 26.855 13.32 10.098 28.144 10.098 9.024 0 16.328-3.652 7.305-3.868 13.106-11.387l3.008 1.933q-7.735 15.684-19.121 23.633-11.387 7.735-26.426 7.735-19.121 0-31.367-14.18-12.032-14.18-12.247-35.234 0-19.551 12.461-33.086 12.461-13.75 37.383-21.485-25.136-6.015-37.812-21.054-12.461-15.04-12.461-38.887 0-28.36 16.543-45.977 16.758-17.617 41.465-17.617 26.855 0 44.043 19.766 17.187 19.55 24.707 58.652 8.808-39.101 26.425-58.652 17.618-19.766 43.829-19.766 36.953 0 58.007 32.442 21.27 32.226 21.27 81.425 0 53.496-18.477 83.575-18.476 30.078-50.703 30.078-25.351 0-42.539-18.692-16.973-18.691-16.973-44.258 0-20.625 11.602-34.16 11.602-13.75 28.574-13.75 15.04 0 25.996 9.883 11.172 9.668 11.172 24.492 0 11.387-9.023 19.98-8.809 8.38-20.84 7.735"/></svg>