<svg xmlns="http://www.w3.org/2000/svg" viewBox="0 0 512 512"><path d="M0 0h512v512H0z"/><path d="M292.63 148.271q19.122 10.743 24.923 21.055 6.015 10.098 6.015 28.79 16.114 12.46 24.278 27.5 8.164 14.823 8.164 32.44 0 39.747-30.293 61.016-30.293 21.27-69.824 21.27-34.805 0-66.817-21.485-32.012-21.699-32.012-59.297 0-14.394 6.875-25.136h3.223q-2.363 6.015-2.363 16.972 0 25.352 25.781 40.82 25.996 15.255 60.8 15.255 50.06 0 72.188-20.84 22.344-21.055 22.344-42.969 0-12.031-6.016-21.914-5.8-10.098-17.402-18.262-4.297 20.84-24.492 34.16-20.195 13.106-42.754 13.32-16.973 0-30.293-7.949-13.105-8.164-13.105-23.632 0-16.114 16.757-27.715 16.973-11.602 43.184-11.387 17.402 0 41.035 10.098l.645-4.297q0-16.543-13.106-27.07-13.105-10.743-30.937-10.743H156.635v-29.648H298.86q23.203 0 34.805-9.668 11.602-9.883 11.602-29.434 0-9.882-4.942-18.047-4.726-8.378-14.394-14.824h7.734q11.387 8.38 16.973 19.551 5.8 11.172 5.8 25.352 0 24.921-16.113 40.82-15.898 15.898-43.398 15.898zm19.337 47.48q-19.98-11.171-39.746-11.171-23.848 0-34.375 8.809-10.528 8.593-10.528 18.69 0 16.114 29.434 16.114 16.973 0 33.3-8.379 16.544-8.593 21.915-24.062"/></svg>