<svg xmlns="http://www.w3.org/2000/svg" viewBox="0 0 512 512"><path d="M0 0h512v512H0z"/><path d="M294.78 148.271q41.679 14.825 64.667 44.903 22.989 30.078 22.989 68.32 0 29.004-15.684 53.926t-48.34 24.922q-22.988 0-38.457-17.403t-23.418-52.207q-8.379 34.805-24.922 52.207-16.328 17.403-40.82 17.403-28.145 0-43.613-24.063-15.47-24.277-15.47-56.719 0-38.457 23.634-68.105 23.633-29.648 64.023-43.184h-87.226v-29.648h194.003q23.204 0 34.805-9.668 11.817-9.883 11.817-29.434 0-9.882-4.942-18.047-4.726-8.378-14.394-14.824h7.734q11.172 8.38 16.758 19.551 5.8 11.172 5.8 25.352 0 21.699-14.18 39.316-13.964 17.402-45.331 17.402zm-38.243 111.72q8.164 23.847 22.344 35.663 14.18 11.817 34.375 11.817 24.492 0 39.101-17.188 14.61-17.402 14.61-45.762 0-42.324-33.086-69.18-32.871-27.07-78.848-27.07-30.508 0-54.355 12.676-23.633 12.461-38.672 34.59-14.824 21.914-14.824 48.984 0 27.5 14.394 45.332 14.395 17.618 37.813 17.618 20.625 0 34.804-11.817 14.395-11.816 22.344-35.664m18.906 132.128q0 7.734-5.156 13.965-4.941 6.23-14.824 6.23-10.098 0-15.254-5.586-4.941-5.586-4.941-16.543 0-21.27 20.195-74.98 19.98 53.281 19.98 76.914"/></svg>