<svg xmlns="http://www.w3.org/2000/svg" viewBox="0 0 512 512"><path d="M0 0h512v512H0z"/><path d="M267.924 148.271q40.605 10.743 65.312 43.614t24.707 73.476q0 31.797-14.824 53.496-14.61 21.485-38.887 21.485-17.832 0-26.855-8.594-9.023-8.809-18.691-36.309-9.668-28.144-19.336-39.746-9.668-11.816-26.211-11.601-23.418 0-38.457 13.75t-15.254 31.152q0 9.668 7.734 19.121 7.734 9.238 23.203 18.262 10.528 6.23 15.899 11.387 5.37 4.94 5.37 9.238 0 5.156-2.577 7.734-2.364 2.578-7.09 2.578-17.188 0-32.871-24.277-15.47-24.492-15.47-56.504 0-33.516 14.825-48.125 15.04-14.824 31.582-14.824 19.121 0 30.078 11.172t25.137 47.91q8.164 20.41 17.832 27.715 9.668 7.09 25.352 7.09 22.129 0 34.16-16.329 12.246-16.543 12.246-37.812 0-42.969-33.086-73.906-32.871-31.153-76.914-31.153h-81.64v-29.648h148.027q23.203 0 34.804-9.668 11.602-9.883 11.602-29.434 0-9.882-4.942-18.047-4.726-8.378-14.394-14.824h7.734q11.387 8.38 16.973 19.551 5.8 11.172 5.8 25.352 0 21.484-14.179 39.101t-45.332 17.617z"/></svg>