<svg xmlns="http://www.w3.org/2000/svg" viewBox="0 0 512 512"><path d="M0 0h512v512H0z"/><path d="M129.457 148.271v-29.648h194.434q23.203 0 34.804-9.668 11.817-9.883 11.817-29.434 0-9.882-4.942-18.047-4.726-8.378-14.394-14.824h7.734q11.172 8.38 16.758 19.551 5.8 11.172 5.8 25.352.216 25.136-15.898 40.82-16.113 15.684-43.613 15.898zm147.168 36.739q0 7.304-5.586 13.964-5.371 6.446-14.824 6.446-5.8 0-10.313-2.793-4.511-3.008-7.304-7.52-2.578-4.511-2.793-10.097 0-9.453 6.445-14.825 6.66-5.37 13.965-5.37 8.379 0 14.394 6.015 6.016 5.8 6.016 14.18m-20.84 83.789q-5.37 35.879-21.055 53.71-15.468 17.833-41.464 17.833-27.5 0-44.903-19.336-17.402-19.551-17.402-50.703 0-29.649 13.75-42.11 13.75-12.676 29.219-12.676 12.89 0 24.492 9.239 11.816 9.023 11.816 24.707 0 13.535-9.453 21.054-9.453 7.52-21.055 7.52v-3.438q10.098-.859 15.254-5.8 5.157-5.157 5.157-14.61 0-10.527-8.594-17.832-8.594-7.304-20.625-7.304-17.617 0-26.426 10.097-8.809 9.883-8.809 21.914.215 20.625 15.47 33.516 15.253 12.89 38.671 12.89 26.426 0 43.184-13.964 16.758-14.18 23.633-42.54 7.09 28.36 21.699 42.54 14.61 13.965 36.523 13.965 23.848 0 41.895-13.965t18.047-43.184q0-16.973-16.973-42.539-13.106-19.766-13.106-26.64 0-5.587 2.579-8.38 2.578-2.792 7.734-2.792 7.305 0 16.113 27.93 9.024 27.929 9.024 53.925 0 44.258-14.825 66.387t-44.257 22.129q-28.36 0-44.688-17.832t-20.625-53.711"/></svg>