<svg xmlns="http://www.w3.org/2000/svg" viewBox="0 0 512 512"><path d="M0 0h512v512H0z"/><path d="M129.457 148.271v-29.648h202.168q15.684 0 27.5-9.883t11.816-26.855q0-10.957-4.941-19.766-4.727-9.023-14.395-15.898h7.735q10.742 8.378 16.113 19.336 5.586 10.742 5.586 24.062.215 23.633-16.758 41.25-16.758 17.402-44.258 17.402zm146.738 36.739q0 8.379-6.015 14.394-5.801 6.016-14.395 6.016-9.453 0-14.824-6.446-5.371-6.66-5.371-13.964 0-5.801 2.793-10.313t7.304-7.09q4.512-2.793 10.098-2.793 5.8 0 10.313 2.793 4.726 2.578 7.304 7.09 2.793 4.512 2.793 10.313m-20.84 83.789q-5.37 35.879-21.054 53.71-15.469 17.833-41.465 17.833-27.285 0-44.902-19.336-17.403-19.551-17.403-50.703 0-26.211 12.461-40.391 12.461-14.395 30.508-14.395 14.395 0 25.352 9.883t10.957 24.063q0 12.46-9.024 20.41-8.808 7.95-21.484 8.164v-3.438q10.097-.859 15.254-5.8 5.156-5.157 5.156-14.61 0-10.527-8.594-17.832-8.594-7.304-20.41-7.304-17.832 0-26.64 10.097-8.81 9.883-8.81 21.914 0 20.625 15.47 33.516 15.468 12.89 38.886 12.89 26.426 0 42.969-13.964 16.758-14.18 23.633-42.54 7.09 28.36 21.7 42.54 14.608 13.965 36.522 13.965 23.848 0 41.895-13.965t18.047-43.184q0-17.187-16.328-42.11-13.75-20.41-13.75-27.07 0-11.171 10.312-11.171 6.446 0 15.684 26.425 9.453 26.426 9.453 55.43 0 44.258-14.824 66.387t-44.258 22.129q-28.145 0-44.473-17.832t-20.84-53.711m19.766 123.32q0 7.734-4.941 13.965-4.942 6.23-14.825 6.23-20.41 0-20.41-22.129 0-21.27 20.41-74.98 19.766 53.281 19.766 76.914"/></svg>