<svg xmlns="http://www.w3.org/2000/svg" viewBox="0 0 512 512"><path d="M0 0h512v512H0z"/><path d="M259.223 264.932q-7.52 37.812-23.848 56.718-16.113 18.692-41.035 18.692-28.79 0-44.258-18.692-15.254-18.906-15.254-41.25 0-16.543 9.238-32.011 9.454-15.684 28.145-30.508 14.18-11.172 21.27-22.989 7.304-11.816 7.304-24.277 0-14.824-9.883-23.633-9.668-9.023-20.625-8.808-16.543 0-25.78 8.379-9.024 8.378-9.024 21.054 0 9.883 4.941 16.114 5.156 6.015 15.254 8.593l-1.504 2.793q-15.898-2.578-23.848-12.246-7.949-9.883-7.949-26.855 0-20.41 12.461-31.797 12.676-11.387 29.649-11.387 19.765 0 33.945 11.172 14.394 11.172 14.394 36.738 0 17.617-9.238 31.153-9.023 13.32-29.863 30.507-11.387 9.239-17.188 19.122-5.586 9.882-5.586 20.41 0 17.402 10.743 31.582 10.742 13.965 35.664 13.965 23.203 0 39.96-19.98 16.973-20.196 21.915-45.763 9.238 32.871 25.566 49.414 16.328 16.329 39.746 16.329 27.5 0 41.25-20.41 13.965-20.41 13.965-61.446 0-25.137-10.312-44.902-10.313-19.766-30.723-34.375-14.18-9.883-14.18-20.41 0-5.801 2.578-8.594 2.578-3.008 7.735-3.008 9.238 0 29.218 30.938 20.196 30.722 20.196 91.953 0 49.199-15.254 76.27-15.254 26.855-43.399 26.855-26.425 0-42.968-18.692-16.543-18.906-23.418-56.718"/></svg>