<svg xmlns="http://www.w3.org/2000/svg" viewBox="0 0 512 512"><path d="M0 0h512v512H0z"/><path d="M318.842 148.271q33.945 18.692 50.273 44.473 16.543 25.566 16.543 65.313 0 33.515-17.402 58.007-17.402 24.278-44.043 24.278-26.426 0-42.969-18.692-16.543-18.906-23.418-56.719-7.52 37.813-23.847 56.72-16.114 18.69-41.036 18.69-28.789 0-44.257-18.69-15.254-18.907-15.254-41.25 0-16.544 9.238-32.012 9.453-15.684 28.144-30.508 14.18-11.172 21.27-22.989 7.305-11.816 7.305-24.277 0-14.824-9.883-23.633-9.668-9.023-20.625-8.808-16.543 0-25.781 8.379-9.024 8.378-9.024 21.054 0 9.883 4.942 16.114 5.156 6.015 15.253 8.593l-1.503 2.793q-15.899-2.578-23.848-12.246-7.95-9.883-7.95-26.855 0-20.41 12.462-31.797 12.675-11.387 29.648-11.387 19.766 0 33.945 11.172 14.395 11.172 14.395 36.738 0 17.617-9.238 31.153-9.024 13.32-29.864 30.507-11.386 9.239-17.187 19.122-5.586 9.882-5.586 20.41 0 17.402 10.742 31.582 10.742 13.965 35.664 13.965 23.203 0 39.961-19.98 16.973-20.196 21.914-45.763 9.238 32.871 25.567 49.414 16.328 16.329 39.746 16.329 24.277 0 36.738-18.692 12.676-18.691 12.676-46.62 0-43.185-27.5-68.536-27.5-25.352-53.282-25.352h-27.07v-29.648h65.313q23.203 0 34.804-9.668 11.602-9.883 11.602-29.434 0-9.882-4.941-18.047-4.727-8.378-14.395-14.824h7.734q11.387 8.38 16.973 19.551 5.8 11.172 5.8 25.352 0 24.921-16.112 40.82-15.899 15.898-43.399 15.898zm-41.68 243.848q0 7.734-4.941 13.965-4.942 6.23-14.825 6.23-10.312 0-15.468-5.586-4.942-5.586-4.942-16.543 0-21.27 20.41-74.98 19.766 53.281 19.766 76.914"/></svg>