<svg xmlns="http://www.w3.org/2000/svg" viewBox="0 0 512 512"><path d="M0 0h512v512H0z"/><path d="M313.256 273.955q-3.438 33.3-18.477 49.844-14.824 16.543-41.035 16.543-28.144 0-44.473-17.832-16.328-17.832-20.84-53.711-5.37 35.879-21.054 53.71-15.469 17.833-41.465 17.833-27.285 0-44.902-19.336-17.403-19.551-17.403-50.703 0-26.211 12.461-40.391 12.461-14.395 30.508-14.395 14.395 0 25.352 9.883t10.957 24.063q0 12.46-9.024 20.41-8.808 7.95-21.484 8.164v-3.438q10.098-.859 15.254-5.8 5.156-5.157 5.156-14.61 0-10.527-8.594-17.832-8.593-7.304-20.41-7.304-17.832 0-26.64 10.097-8.809 9.883-8.809 21.914 0 20.625 15.469 33.516t38.886 12.89q26.426 0 42.97-13.964 16.757-14.18 23.632-42.54 7.95 28.36 21.914 42.54 13.965 13.965 33.945 13.965 23.204 0 37.383-15.254 14.395-15.254 14.395-37.383 0-47.266-38.672-76.914t-93.457-29.649H63.607v-29.648h193.575q23.203 0 34.804-9.668 11.602-9.883 11.602-29.434 0-9.882-4.942-18.047-4.726-8.378-14.394-14.824h7.734q11.387 8.38 16.973 19.551 5.8 11.172 5.8 25.352 0 21.699-14.179 39.316-14.18 17.402-45.332 17.402H204.33q53.066 14.61 80.352 42.11 27.285 27.285 29.004 67.676 11.386 24.707 27.714 37.167 16.543 12.247 38.243 12.247 29.863 0 47.695-23.418 17.832-23.633 17.832-50.059 0-30.293-19.98-49.2-19.766-19.12-59.297-26.855-13.106-2.578-19.766-6.445-6.445-4.082-6.445-9.453 0-6.016 3.867-9.024 4.082-3.222 12.031-3.222 29.004 0 61.875 29.219 33.086 29.218 33.086 87.011 0 41.895-19.121 68.106-18.906 26.21-48.984 26.21-42.54 0-69.18-66.386"/></svg>