<svg xmlns="http://www.w3.org/2000/svg" viewBox="0 0 512 512"><path d="M0 0h512v512H0z"/><path d="M340.648 272.021q-3.652 32.227-22.128 50.274-18.262 18.047-41.895 18.047-31.582 0-50.918-23.203-19.336-23.204-31.367-69.18-3.223 41.25-23.418 66.816-19.98 25.567-50.059 25.567-40.605 0-63.593-37.383-22.99-37.599-22.99-90.235 0-42.324 19.121-71.113 19.336-28.789 53.926-28.789 33.73 0 57.149 31.152 23.632 31.153 28.574 73.907 4.941 41.894 24.492 65.742 19.766 23.848 50.918 23.848 25.996 0 42.969-18.262 16.972-18.262 16.972-47.48 0-41.25-26.64-67.247-26.426-26.21-64.239-26.21h-24.277v-29.65h73.691q19.336 0 32.227-10.956 13.106-11.172 13.106-27.07 0-11.387-4.942-19.766-4.726-8.594-14.394-14.18h7.734q10.957 8.38 16.328 18.692 5.586 10.312 5.586 22.343 0 29.434-18.047 45.118-17.832 15.468-38.242 15.468H268.46q36.523 16.543 54.785 43.828 18.262 27.07 18.262 64.668v.215q11.387 25.352 27.93 38.028 16.542 12.46 38.457 12.46 29.863 0 47.695-23.417 17.832-23.633 17.832-50.059 0-30.293-19.98-49.2-19.766-19.12-59.297-26.855-13.106-2.578-19.766-6.445-6.445-4.082-6.445-9.453 0-6.016 3.867-9.024 4.082-3.222 12.031-3.222 29.863 0 62.305 30.078 32.656 29.863 32.656 86.152 0 42.11-19.121 68.32-18.906 25.997-48.77 25.997-43.398 0-70.254-68.32m-151.464-42.539q0-33.515-22.559-57.363-22.559-24.062-55-23.848-36.309 0-54.785 22.989-18.262 22.988-18.262 51.992.215 34.804 23.203 59.512 23.203 24.707 52.852 24.707 30.508 0 52.422-22.13 22.129-22.128 22.129-55.859"/></svg>