<svg xmlns="http://www.w3.org/2000/svg" viewBox="0 0 512 512"><path d="M0 0h512v512H0z"/><path d="M224.525 148.271H157.28v-29.648h142.227q23.203 0 34.805-9.668 11.601-9.883 11.601-29.434 0-19.98-19.336-32.87h7.735q22.773 16.542 22.773 44.902 0 25.136-15.898 41.035-15.684 15.683-43.614 15.683h-7.734q33.516 14.18 50.273 37.168 16.973 22.989 16.973 54.785 0 29.434-13.105 51.778-12.891 22.129-35.665 35.234-22.773 13.106-52.851 13.106-34.375 0-66.387-25.782-31.797-25.78-31.797-72.402 0-31.797 16.758-55.215 16.758-23.633 50.488-38.672m114.297 76.055q0-36.094-25.566-56.074-25.567-19.98-55.86-19.98-39.96 0-61.015 25.136-20.84 24.922-20.84 53.711.215 32.871 23.633 56.719 23.633 23.633 56.719 23.633 30.507 0 56.718-20.84t26.211-62.305"/></svg>