<svg xmlns="http://www.w3.org/2000/svg" viewBox="0 0 512 512"><path d="M0 0h512v512H0z"/><path d="M191.332 139.463q-25.352 9.023-40.605 30.722-15.254 21.7-15.47 44.473 0 44.473 35.45 68.75 35.45 24.063 82.715 24.063 46.836 0 85.078-25.137t38.242-67.246q0-18.262-10.312-34.16-10.098-15.899-30.293-29.22-16.114-10.741-21.055-16.112-4.941-5.372-5.156-12.032 0-5.37 2.793-7.949 2.793-2.793 8.379-2.793 17.617 0 38.672 30.078 21.27 29.864 21.27 70.684 0 53.71-35.665 90.234-35.45 36.524-88.73 36.524-36.524 0-64.668-16.328-28.145-16.543-44.688-44.043-16.328-27.5-16.328-63.38 0-39.745 19.766-71.757 19.98-32.012 51.777-32.012 20.625 0 32.226 15.469 11.817 15.469 11.817 36.953 0 18.262-10.098 34.375-10.097 15.898-26.64 15.898-13.32 0-21.914-11.386-8.38-11.602-8.594-26.856 0-20.41 12.031-37.812m50.918 24.707q0-10.742-8.809-18.262-8.593-7.734-19.765-7.734-13.535 0-21.055 9.238-7.52 9.023-7.52 18.691 0 11.602 7.735 19.121 7.95 7.52 19.766 7.52 13.105 0 21.27-7.52 8.378-7.734 8.378-21.054"/></svg>