<svg xmlns="http://www.w3.org/2000/svg" viewBox="0 0 512 512"><path d="M0 0h512v512H0z"/><path d="M271.684 148.271q54.57 15.04 81.855 43.399 27.5 28.144 27.5 69.824 0 32.441-14.61 55.645-14.394 23.203-45.331 23.203-28.145 0-44.473-17.832t-20.84-53.711q-5.37 35.879-21.055 53.71-15.468 17.833-41.464 17.833-27.286 0-44.903-19.336-17.402-19.551-17.402-50.703 0-26.211 12.46-40.391 12.462-14.395 30.509-14.395 14.394 0 25.351 9.883t10.957 24.063q0 12.46-9.023 20.41-8.809 7.95-21.485 8.164v-3.438q10.098-.859 15.254-5.8 5.157-5.157 5.157-14.61 0-10.527-8.594-17.832-8.594-7.304-20.41-7.304-17.832 0-26.64 10.097-8.81 9.883-8.81 21.914 0 20.625 15.47 33.516 15.468 12.89 38.886 12.89 26.426 0 42.969-13.964 16.758-14.18 23.633-42.54 7.949 28.36 21.914 42.54 13.964 13.965 33.945 13.965 23.203 0 37.383-15.254 14.394-15.254 14.394-37.383 0-47.266-38.672-76.914t-93.457-29.649H130.961v-29.648h193.574q23.203 0 34.805-9.668 11.601-9.883 11.601-29.434 0-9.882-4.941-18.047-4.727-8.378-14.395-14.824h7.735q11.387 8.38 16.972 19.551 5.801 11.172 5.801 25.352 0 21.699-14.18 39.316-14.18 17.402-45.331 17.402z"/></svg>