<svg xmlns="http://www.w3.org/2000/svg" viewBox="0 0 512 512"><path d="M0 0h512v512H0z"/><path d="M289.516 148.271q32.011 12.891 49.414 38.243 17.402 25.136 17.187 56.074.215 44.472-30.722 71.113-30.723 26.64-83.36 26.64-45.547 0-65.957-20.195-20.195-20.41-20.195-43.613 0-20.84 12.246-33.3 12.46-12.677 32.656-12.677h41.25q18.906 0 28.79-12.03 9.882-12.032 9.882-26.212 0-19.336-12.031-31.582-11.817-12.46-31.582-12.46-16.973 0-27.07 8.593-10.098 8.379-10.098 18.906 0 7.735 4.726 7.735 1.72 0 4.942-4.727 5.586-11.172 18.261-11.172 6.66 0 13.106 5.157 6.445 5.156 6.445 13.32 0 9.453-7.09 14.61-7.09 5.155-15.683 5.155-12.676 0-20.84-8.593t-8.379-19.98q0-19.337 19.55-29.005h-57.577v-29.648h142.226q23.203 0 34.805-9.668 11.602-9.883 11.602-29.434 0-9.882-4.942-18.047-4.726-8.378-14.394-14.824h7.734q11.387 8.38 16.973 19.551 5.8 11.172 5.8 25.352 0 24.921-16.113 40.82-15.898 15.898-43.398 15.898zm-30.079 0q26.641 17.832 26.641 43.614 0 20.625-13.32 33.515-13.106 12.89-33.73 12.89h-29.864q-14.61 0-25.996 8.165-11.387 8.164-11.387 25.781 0 35.235 61.016 35.235 44.258 0 76.055-20.625 31.796-20.625 31.796-61.66 0-32.442-23.418-54.57-23.418-22.345-57.793-22.345"/></svg>