<svg xmlns="http://www.w3.org/2000/svg" viewBox="0 0 512 512"><path d="M0 0h512v512H0z"/><path d="M131.605 148.271v-29.648h192.07q23.204 0 34.805-9.668 11.602-9.883 11.602-29.434 0-9.882-4.941-18.047-4.727-8.378-14.395-14.824h7.734q11.387 8.38 16.973 19.551 5.8 11.172 5.8 25.352 0 21.699-14.179 39.316-14.18 17.402-45.332 17.402zm144.16 36.739q0 8.379-6.015 14.394-5.8 6.016-14.395 6.016-9.453 0-14.824-6.446-5.37-6.66-5.37-13.964 0-5.801 2.792-10.313 2.793-4.512 7.305-7.09 4.512-2.793 10.097-2.793 5.801 0 10.313 2.793 4.727 2.578 7.305 7.09 2.793 4.512 2.793 10.313m63.81 152.324q-8.595 3.008-19.337 3.008-25.566 0-41.894-17.832-16.114-17.832-22.989-53.711-5.156 35.879-21.054 53.71-15.684 17.833-41.895 17.833-27.285 0-44.902-19.336-17.402-19.551-17.402-50.703 0-26.211 12.46-40.391 12.461-14.395 30.508-14.395 14.395 0 25.352 9.883t10.957 24.063q0 12.46-9.024 20.41-8.808 7.95-21.484 8.164v-3.438q10.098-.859 15.254-5.8 5.156-5.157 5.156-14.61 0-10.527-8.593-17.832-8.594-7.304-20.41-7.304-17.833 0-26.641 10.097-8.809 9.883-8.809 21.914 0 20.625 15.469 33.516t38.887 12.89q26.425 0 42.968-13.964 16.758-14.18 23.633-42.54 10.313 31.368 25.781 43.829 15.684 12.46 40.176 12.031l-53.71-89.805h2.363l76.054 82.715q13.75-7.305 20.625-19.55 6.875-12.462 6.875-29.864 0-8.379-3.437-17.402-3.223-9.238-9.668-19.336-16.973-25.996-16.973-32.442 0-5.585 2.578-8.378t7.735-2.793q6.445 0 15.683 26.425 9.453 26.426 9.453 55.43 0 42.754-15.468 66.816 15.898 17.832 15.898 22.13 0 5.8-6.66 5.8h-23.203q-5.157 0-10.313-9.238"/></svg>