<svg xmlns="http://www.w3.org/2000/svg" viewBox="0 0 512 512"><path d="M0 0h512v512H0z"/><path d="M154.486 148.271v-29.648h142.227q23.203 0 34.805-9.668 11.601-9.883 11.601-29.434 0-9.882-4.941-18.047-4.727-8.378-14.395-14.824h7.735q11.386 8.38 16.972 19.551 5.801 11.172 5.801 25.352.215 24.921-15.898 40.82-16.114 15.898-43.614 15.898zm94.746 36.739q0 8.379-6.015 14.394-5.801 5.8-14.18 6.016-8.379 0-14.394-6.016-6.016-6.015-6.016-14.394 0-5.801 2.793-10.313t7.305-7.305 10.312-2.578q5.8 0 10.313 2.793 4.511 2.578 7.09 7.09 2.792 4.512 2.792 10.313m-87.011 155.332h-3.008q-4.297-10.098-4.297-27.5.215-32.442 19.766-53.711 19.55-21.27 48.984-21.27 26.855 0 43.184 13.965 16.543 13.965 22.558 41.68 2.578 10.742 5.586 15.039 3.223 4.297 11.387 4.297 14.394 0 23.203-18.477 8.809-18.476 8.809-41.465 0-35.879-11.602-67.89l2.363-.86q24.707 25.567 24.707 79.278 0 37.382-10.527 57.148t-26.855 19.766q-10.743 0-17.618-6.66-6.66-6.66-9.453-19.981-3.222-16.328-8.164-24.062-4.726-7.735-17.617-13.32-12.89-5.587-35.234-5.587-30.079 0-48.985 14.61-18.691 14.609-18.691 39.101 0 7.09 1.504 15.899"/></svg>