<svg xmlns="http://www.w3.org/2000/svg" viewBox="0 0 512 512"><path d="M0 0h512v512H0z"/><path d="M204.545 148.271q25.566 7.735 41.465 30.508 16.113 22.774 16.113 52.207 11.387-17.187 26.426-25.781 15.254-8.594 34.16-8.594 30.937 0 50.918 22.13 20.195 21.913 20.195 50.917 0 24.707-17.832 47.695-17.832 22.989-51.992 22.989-50.703 0-67.246-54.141-6.23 25.137-24.277 39.746-17.832 14.395-42.54 14.395-24.492 0-46.62-18.477Q121.4 303.39 121.4 268.37q0-30.293 20.84-50.918 21.055-20.84 49.2-20.84 20.84 0 37.382 11.172 16.758 11.172 29.004 33.3 0-47.694-25.996-70.253-25.781-22.559-55.43-22.559h-56.504v-29.648h217.852q23.203 0 34.805-9.668 11.601-9.883 11.601-29.434 0-9.882-4.941-18.047-4.727-8.378-14.395-14.824h7.735q11.386 8.38 16.972 19.551 5.801 11.172 5.801 25.352 0 21.484-14.394 39.101-14.18 17.617-45.118 17.617zm176.172 108.496q0-19.55-14.61-37.597-14.609-18.262-42.109-18.262-25.781 0-43.613 17.188-17.617 17.187-17.832 39.101.215 20.41 16.543 35.45 16.543 14.824 42.539 14.824 25.351 0 42.11-15.254 16.972-15.47 16.972-35.45m-128.262-3.007q0-15.684-16.328-34.16-16.113-18.692-42.754-18.692-24.277 0-41.68 15.469-17.187 15.469-17.402 37.383 0 27.285 17.832 40.605 18.047 13.106 40.82 13.106 22.774 0 41.036-13.965 18.476-13.965 18.476-39.746"/></svg>