<svg xmlns="http://www.w3.org/2000/svg" viewBox="0 0 512 512"><path d="M0 0h512v512H0z"/><path d="M316.908 145.908q20.41 9.668 30.723 23.633t10.312 32.012q0 25.996-21.914 41.894-21.914 15.684-51.133 15.684 15.47 14.61 15.47 39.746 0 15.683-10.098 28.574-9.883 12.89-29.649 12.89-16.758 0-27.715-11.816-10.957-12.031-10.957-28.789 0-21.699 21.27-39.746-3.008 0-9.024 1.074-6.015.86-10.742.86-22.129 0-36.308-8.38-14.18-8.378-23.633-26.855-9.239-18.476-9.239-40.605 0-28.574 13.106-50.918 13.32-22.344 36.738-22.344 15.469 0 24.922 12.031 9.453 11.817 9.453 30.079 0 16.972-8.808 27.714-8.594 10.528-22.13 10.528-14.179 0-21.484-10.742-7.09-10.958-7.09-24.493 0-8.379 2.793-16.543-11.601 4.727-17.402 14.61-5.8 9.668-5.8 24.277 0 21.484 16.113 35.02 16.113 13.535 48.34 19.12 19.98 3.438 34.374 8.81 14.395 5.156 23.204 12.03 29.004-2.148 47.265-18.69 18.477-16.759 18.477-41.466 0-17.402-11.602-32.011-11.386-14.825-35.234-14.825h-31.152v-29.648h33.085q23.204 0 34.805-9.668 11.602-9.883 11.602-29.434 0-9.882-4.942-18.047-4.726-8.378-14.394-14.824h7.734q11.387 8.38 16.973 19.551 5.8 11.172 5.8 25.352 0 22.773-10.527 36.308t-31.582 18.047m-82.93 10.527q0-8.164-6.66-15.683t-19.336-7.52q-9.882 0-17.402 6.23-7.305 6.231-7.305 16.973 0 6.66 6.66 13.75t18.907 7.09q12.89 0 18.906-6.66 6.23-6.66 6.23-14.18m58.653 131.27q0-11.816-8.594-19.98-8.379-8.165-21.914-8.165-12.46 0-21.27 9.239-8.593 9.238-8.808 20.84 0 12.03 7.95 19.765 7.948 7.735 19.765 7.735 12.246 0 22.558-7.735 10.313-7.95 10.313-21.7"/></svg>