<svg xmlns="http://www.w3.org/2000/svg" viewBox="0 0 512 512"><path d="M0 0h512v512H0z"/><path d="M238.275 148.271q9.239 6.875 9.239 15.899 0 9.238-8.809 15.039h78.418v30.508h-59.512q22.559 8.593 33.73 24.492 11.388 15.683 11.388 38.887 0 28.359-18.047 47.91-17.832 19.336-46.836 19.336-32.871 0-49.844-19.98-16.973-20.196-16.973-42.325 0-26.426 11.387-43.398 11.602-17.188 34.59-24.922h-59.942v-30.508h61.875q7.305 0 13.106-4.727 5.8-4.941 5.8-11.172 0-8.808-7.304-15.039h-73.477v-29.648H260.62q23.203 0 34.805-9.668 11.601-9.883 11.601-29.434 0-19.98-19.336-32.87h7.735q22.773 16.542 22.773 44.902 0 25.136-16.113 41.035-15.898 15.683-43.398 15.683zm45.977 112.793q0-21.914-13.965-36.738-13.965-15.039-35.45-15.039-21.698 0-34.374 16.113-12.461 15.899-12.461 34.16 0 16.543 12.246 32.227t36.523 15.684q20.196 0 33.731-13.75 13.75-13.75 13.75-32.657m59.512 168.867q0-19.12-22.989-63.164 4.512 18.907 4.512 32.442 0 51.348-39.101 51.348-32.442 0-47.48-54.786-11.388 54.786-47.481 54.786-20.625 0-33.301-18.047-11.387-16.114-11.387-37.168 0-16.973 9.668-30.508 10.313-14.61 26.211-14.61 20.195 0 28.145 24.922l-3.438 1.29q-10.742-14.395-25.137-14.395-13.32 0-21.914 7.95-8.593 7.948-8.593 21.054 0 15.039 12.89 24.922 11.817 9.023 27.285 9.023 32.657 0 47.48-45.547 13.966 45.547 45.118 45.547 32.656 0 32.656-40.82 0-17.832-6.23-38.672-3.867-12.89-9.024-32.871h6.66q7.52 39.316 31.797 80.137 23.418 39.316 23.418 62.52 0 18.905-13.535 18.905-12.89 0-12.89-14.394 0-5.586 3.222-14.395 3.438-8.808 3.438-15.468"/></svg>